<?xml version="1.0" encoding="utf-8"?>
<!-- Generator: Adobe Illustrator 26.0.3, SVG Export Plug-In . SVG Version: 6.00 Build 0)  -->
<svg version="1.1" id="Layer_1" xmlns="http://www.w3.org/2000/svg" xmlns:xlink="http://www.w3.org/1999/xlink" x="0px" y="0px"
	 viewBox="0 0 128 56" style="enable-background:new 0 0 128 56;" xml:space="preserve">
<style type="text/css">
	.st0{fill:#FF0000;}
</style>
<g id="zBA1vm">
	<path class="st0" d="M58.9,13.4c0.7-0.1,1.4-0.2,2.1-0.2c3.3,0,6.5-0.1,9.8,0c1.1,0,2.1,0.2,3.1,0.5c3.1,1,5,3.3,5.3,6.6
		c0.4,3.2-0.8,5.8-3.5,7.6c-0.7,0.5-1.5,0.9-2.5,1.4c0.3,0.6,0.6,1.2,0.9,1.8c1.5,2.7,2.9,5.5,4.4,8.2c0.4,0.7,0.8,1.5,0.1,2.6
		l-2.1,0.3l-7.1-12.7h-7.7c0,0.7-0.1,1.2-0.1,1.8c0,2.8,0,5.6,0,8.3c0,0.8,0,1.7-0.9,2.4h-1.5c-0.8-0.4-0.8-1.2-0.8-1.9
		c0-8.2,0-16.4,0-24.6C58.7,14.7,58.8,14,58.9,13.4z M61.9,26c0.3,0.1,0.6,0.1,0.9,0.2c2.7,0,5.4,0,8.1,0c0.9-0.1,1.8-0.3,2.6-0.6
		c1.2-0.4,2.2-1.4,2.5-2.7c1-3.4-0.8-6.2-4.6-6.5c-3-0.2-6.1,0-9.1,0c-0.1,0-0.2,0.1-0.4,0.3L61.9,26L61.9,26z"/>
	<path class="st0" d="M45,29.3h-7.7c-0.1,0.7-0.1,1.2-0.1,1.8c0,2.8,0,5.7,0,8.5c0,0.8-0.1,1.6-0.9,2.2h-1.9
		c-0.1-0.6-0.4-1.3-0.4-1.9c0-8.3,0-16.5,0-24.8c0.1-0.6,0.1-1.2,0.3-1.7c0.6-0.2,1.2-0.3,1.8-0.3c3.6,0,7.1-0.1,10.7,0
		c4,0.1,7.1,2.7,7.9,6.6c0.7,3.3-0.9,6.7-4,8.4c-0.6,0.3-1.2,0.6-1.9,1c0.3,0.6,0.5,1.1,0.8,1.7c1.5,2.8,3,5.6,4.5,8.3
		c0.4,0.7,0.8,1.5,0.2,2.6L52,42.1C49.6,37.7,47.3,33.5,45,29.3z M37.1,16.2c0,3.4-0.1,6.6,0,9.6c0.2,0.1,0.5,0.2,0.7,0.2
		c2.9,0,5.9,0,8.8,0c0.7-0.1,1.4-0.2,2.1-0.5c1.2-0.4,2.2-1.4,2.6-2.6c1-3-0.4-5.6-3.5-6.4c-0.7-0.2-1.4-0.3-2.1-0.3
		c-1.8,0-3.5,0-5.3,0H37.1z"/>
	<path class="st0" d="M83.6,23.5c0-2.7,0-5.3,0-8c0-0.4,0-0.8,0-1.2c0.1-1,0.6-1.5,1.4-1.5c0.8,0,1.5,0.6,1.6,1.4
		c0.1,0.5,0.1,1,0.1,1.5c0,4.9,0,9.8,0,14.7c0,0.8,0,1.6,0.1,2.3c0.5,3.6,3.1,6,6.7,6.2c4.2,0.2,7.2-2.9,7.5-5.8
		c0.1-0.9,0.2-1.8,0.2-2.7c0-4.9,0-9.9,0-14.8c0-0.6,0-1.1,0.2-1.6c0.2-0.7,0.8-1.1,1.5-1.1c0.8,0,1.2,0.5,1.4,1.2
		c0.1,0.3,0.1,0.7,0.1,1c0,5.5,0,11,0,16.5c-0.1,4.6-2.6,8.3-6.5,9.7c-6.7,2.4-14.1-1.5-14.2-9.8C83.5,28.8,83.6,26.1,83.6,23.5z"/>
	<path class="st0" d="M125.2,17.6l-2.3-1.1c-2.2-1.1-4.5-1.6-6.9-0.9c-1.4,0.4-2.6,1-3.4,2.2c-1.4,1.9-1.2,4.2,0.8,5.6
		c1.1,0.7,2.2,1.3,3.4,1.7c1.6,0.6,3.3,1.1,4.9,1.6c0.7,0.2,1.5,0.5,2.2,0.8c5.3,2.2,5.1,8.1,2.3,11.2c-1.5,1.7-3.7,2.8-5.9,3.1
		c-4.3,0.6-8.2-0.6-11.7-3.1c-0.2-0.2-0.4-0.4-0.5-0.6c-0.1-1.6-0.1-1.6,1.5-2.3c0.6,0.4,1.4,0.8,2.2,1.3c2.9,1.8,6,2.3,9.2,1.4
		c1.2-0.3,2.3-1,3-1.9c1.8-2.2,1.2-4.9-1.3-6c-1.7-0.7-3.6-1.2-5.3-1.9c-1.7-0.6-3.4-1.2-4.9-2c-4.9-2.7-5.1-9.3-0.5-12.5
		c2.8-1.9,5.9-2.2,9.1-1.5c1.6,0.4,3.2,1,4.6,1.8C127.2,15.3,127.1,16.5,125.2,17.6z"/>
	<path class="st0" d="M20.5,21.2c-0.7,0.9-1.4,1.2-2.4,0.8c-0.3-0.6-0.7-1.3-1.1-2.1c-1.7-3.6-6-5.2-9.6-3.5
		c-2.5,1.2-4.2,3.7-4.2,6.5c-0.1,3-0.1,6,0,9c0.1,3.4,2,5.9,4.9,6.9c3.1,1,6.1,0,8.3-2.7c0.1-0.1,0.2-0.3,0.3-0.4
		c1.2-1.4,2.1-1.3,3.2,0.5c-0.3,0.7-0.6,1.3-1,1.9c-2.9,3.6-6.7,4.9-11.1,3.8c-4.3-1.1-6.6-4-7.4-8.3C0.1,32.7,0,31.9,0,31
		c0.1-3.3-0.1-6.6,0.3-9.8c0.5-4.6,4.6-8.1,9.2-8.4c5.1-0.3,9.1,2.2,10.8,7.1C20.4,20.3,20.5,20.8,20.5,21.2z"/>
	<path class="st0" d="M26.8,41.8h-1.7c-0.2-0.6-0.5-1.1-0.5-1.6c0-8.3,0-16.5,0-24.8c0-0.4,0.1-0.8,0.2-1.1c0.3-0.7,0.9-0.9,1.6-0.9
		c0.6,0,1.2,0.5,1.2,1.1c0.1,0.4,0.1,0.8,0.1,1.2c0,7.9,0,15.9,0,23.8C27.7,40.4,27.8,41.2,26.8,41.8z"/>
</g>
</svg>
