<?xml version="1.0" encoding="utf-8"?>
<!-- Generator: Adobe Illustrator 26.0.3, SVG Export Plug-In . SVG Version: 6.00 Build 0)  -->
<svg version="1.1" id="Layer_1" xmlns="http://www.w3.org/2000/svg" xmlns:xlink="http://www.w3.org/1999/xlink" x="0px" y="0px"
	 viewBox="0 0 84.6 56" style="enable-background:new 0 0 84.6 56;" xml:space="preserve">
<style type="text/css">
	.st0{fill:#FF0000;}
</style>
<g>
	<path class="st0" d="M80.5,31.4H58.6v-2.9c0-0.5,0.2-1,0.7-1.5l10.3-9.8L79.8,27c0.4,0.4,0.7,1,0.7,1.5
		C80.5,28.5,80.5,31.4,80.5,31.4z M82.7,24L71.5,13.3h-4.1L56.3,24c-1.3,1.2-1.9,2.9-1.9,4.4v14.2h4.2v-7.2h21.8v7.1h4.2V28.5
		C84.5,26.9,83.9,25.2,82.7,24"/>
	<path class="st0" d="M54.1,13.3h-4.2c0,7-5.6,12.6-12.6,12.6h-3.8V13.3h-4.2v29.4h4.2V30.1h3.8c0.7,0,1.5-0.1,2.2-0.1l6.1,12.7h4.7
		l-6.7-13.8C49.7,26.4,54.1,20.6,54.1,13.3"/>
	<polygon class="st0" points="0,42.7 25.2,42.7 25.2,38.5 4.2,38.5 4.2,30.1 22.2,30.1 22.2,25.9 4.2,25.9 4.2,17.5 25.2,17.5 
		25.2,13.3 0,13.3 	"/>
</g>
</svg>
